<svg xmlns="http://www.w3.org/2000/svg" viewBox="0 0 67 67"><path fill="#FFF" d="M9.97546,58.24641V15.04174c0-2.06583,1.67467-3.74057,3.74051-3.74057h30.81786v46.94524H9.97546z"></path><path fill="#8F9FFF" d="M51.23029,18.20994v-3.23661c0-0.38603-0.05938-0.75225-0.16824-1.0888  c-0.02972-0.11877-0.06929-0.22763-0.11877-0.3464c0,0,0,0,0-0.00991c-0.08911-0.20782-0.19797-0.41569-0.33655-0.60375  c-0.00991-0.00991,0-0.00991,0-0.00991c-0.29523-0.43974-0.68573-0.79653-1.13363-1.06741  c-0.01003-0.00616-0.01981-0.01226-0.0299-0.01836c-0.24938-0.14746-0.51126-0.27584-0.79623-0.35927  c-0.22769-0.0792-0.45532-0.12868-0.69286-0.14849c-0.12868-0.00991-0.26726-0.01981-0.39594-0.01981h-33.6279v0.00991  c0.90068,0.06929,1.72221,0.46523,2.32597,1.06898c0.67304,0.66314,1.07889,1.57372,1.07889,2.59323v3.23661H51.23029z"></path><polygon fill="#8F9FFF" points="38.093 55.514 38.093 65.888 33.943 61.697 29.794 65.888 29.794 55.514"></polygon><path fill="#FFF" d="M41.80203 51.27046c-1.47745 1.47752-2.30524 3.4789-2.30524 5.56413-2.08529 0-4.07618.82785-5.5537 2.29481-1.47745-1.46696-3.46841-2.29481-5.55364-2.29481 0-2.08523-.82779-4.08661-2.3053-5.56413 1.47752-1.46696 2.3053-3.46841 2.3053-5.55364 2.08523 0 4.07619-.82778 5.55364-2.3053 1.47752 1.47752 3.46841 2.3053 5.5537 2.3053C39.49679 47.80205 40.32458 49.80349 41.80203 51.27046zM51.9291 58.07624L51.9291 58.07624 51.9291 58.07624c-1.28483-1.28033-2.00702-3.01954-2.00702-4.83338v-23.6829h4.01403v23.6829C53.93612 55.0567 53.21393 56.79591 51.9291 58.07624z"></path><path fill="#FFF" d="M53.13392,23.47819h-2.40964c-0.87614,0-1.58638,0.71025-1.58638,1.58638v14.63948h5.58241V25.06458  C54.72031,24.18844,54.01006,23.47819,53.13392,23.47819z"></path><path fill="#8F9FFF" d="M53.3469,23.47819h-2.8356v-1.94296c0-0.78303,0.63477-1.4178,1.4178-1.4178h0  c0.78303,0,1.4178,0.63477,1.4178,1.4178V23.47819z"></path><path fill="#2A44E2" d="M61.96096 44.70577c-.25-.11621-.54736-.01172-.66602.23828-1.38281 2.91504-3.24365 5.6123-5.53076 8.01758-.19043.2002-.18213.5166.01758.70703.20182.19163.51884.18091.70703-.01758 2.36035-2.48242 4.28125-5.26758 5.70947-8.2793C62.31692 45.12276 62.21047 44.82491 61.96096 44.70577zM8.48 14.19454c.15967-.22559.10596-.5376-.11963-.69678S7.82229 13.3918 7.6636 13.61739C3.87746 18.97628 1.876 25.27755 1.876 31.84053c0 .5.01953.99512.04248 1.48926.03048.66808 1.0294.61441.99902-.04688C2.89553 32.8044 2.876 32.32491 2.876 31.84053 2.876 25.48507 4.81399 19.3835 8.48 14.19454zM38.72121 1.60372c1.82715.31055 3.63525.7915 5.375 1.42871.25475.09443.54498-.0349.64111-.29736.09521-.25928-.03809-.54639-.29736-.64111-1.79639-.65869-3.66406-1.15527-5.55078-1.47656-.26855-.04004-.53076.13721-.57715.40918C38.26614 1.29903 38.44924 1.55733 38.72121 1.60372zM47.70657 3.50557c-.24805-.12305-.54736-.02344-.67139.22314-.12354.24707-.02344.54736.22314.67139C56.75198 9.15548 63.21535 18.64913 64.126 29.1755c.02246.26074.24072.45703.49756.45703.01416 0 .02881-.00098.04346-.00195.27539-.02344.479-.26563.45508-.54102C64.18166 18.21944 57.50832 8.41622 47.70657 3.50557zM37.49953 49.97237h-2.35352l-.72754-2.23828c-.13379-.41211-.81738-.41211-.95117 0l-.72705 2.23828h-2.35401c-.2168 0-.40869.13965-.47559.3457s.00635.43164.18164.55859l1.9043 1.38379-.72705 2.23828c-.06689.20605.00635.43164.18164.55859.08789.06348.19092.0957.29395.0957s.20605-.03223.29395-.0957l1.90381-1.38281 1.9043 1.38281c.17578.12695.41211.12695.58789 0 .17529-.12695.24854-.35254.18164-.55859l-.72705-2.23828 1.90381-1.38379c.17529-.12695.24854-.35254.18164-.55859S37.71633 49.97237 37.49953 49.97237zM35.00784 51.66475c-.17529.12695-.24854.35254-.18164.55859l.36426 1.12109-.95361-.69238c-.08789-.06348-.19092-.0957-.29395-.0957s-.20605.03223-.29395.0957l-.95313.69238.36426-1.12109c.06689-.20605-.00635-.43164-.18164-.55859l-.95313-.69238h1.17822c.2168 0 .40869-.13965.47559-.3457l.36377-1.12012.36426 1.12012c.06689.20605.25879.3457.47559.3457h1.17773L35.00784 51.66475z"></path><path fill="#2A44E2" d="M54.43606,49.88778c4.19574-4.84454,6.74707-11.14978,6.74707-18.04724   c0-15.22656-12.39258-27.61426-27.625-27.61426c-6.8075,0-13.04395,2.47827-17.86383,6.57471c-0.22756,0-2.08114,0-1.97845,0   c-2.33789,0-4.24023,1.90234-4.24023,4.24072v3.31476c-2.24609,3.99213-3.54199,8.58685-3.54199,13.48407   c0,4.88928,1.30225,9.46857,3.54199,13.45441v12.95184c0,0.27637,0.22363,0.5,0.5,0.5h17.36481   c0.64166,0.14557,1.29596,0.25653,1.95306,0.3587v6.78289c0,0.20313,0.12256,0.38574,0.31006,0.46289   c0.19885,0.07891,0.40878,0.0267,0.54541-0.11133l3.79395-3.83203l3.79443,3.83203   c0.14355,0.14453,0.35645,0.18555,0.5459,0.11133c0.18701-0.07715,0.30957-0.25977,0.30957-0.46289v-6.91345   c0.3927-0.07263,0.78741-0.1394,1.17426-0.22815h4.76666c0.27637,0,0.5-0.22363,0.5-0.5v-1.29602   c1.58087-0.7265,3.07892-1.59949,4.48315-2.59875c0.22736,1.46021,0.89343,2.83691,1.91235,3.91638v1.58875   c0,0.27637,0.22363,0.5,0.5,0.5s0.5-0.22363,0.5-0.5v-1.58881c1.27405-1.35028,2.00684-3.16595,2.00684-5.02545V49.88778z    M6.93362,31.84053c0-4.04254,0.9209-7.8689,2.54199-11.30328v22.58691C7.85818,39.69466,6.93362,35.87758,6.93362,31.84053z    M49.63772,39.20382V25.06466c0-0.59912,0.4873-1.08643,1.08643-1.08643h2.40967c0.59912,0,1.08643,0.4873,1.08643,1.08643   v14.13916H49.63772z M52.8467,22.97823h-1.83545v-1.44287c0-0.50635,0.41162-0.91797,0.91797-0.91797   c0.50586,0,0.91748,0.41162,0.91748,0.91797V22.97823z M17.83498,17.71016v-2.73682c0-1.18881-0.49064-2.34042-1.46973-3.17236   c11.61535,0,19.75266,0,31.19287,0c1.83261,0,3.17236,1.4813,3.17236,3.17236v2.73682H17.83498z M33.94289,58.44405   c-1.41553-1.25586-3.18457-1.98828-5.0669-2.0957c-0.10791-1.89063-0.84229-3.66406-2.104-5.07715   c1.24365-1.39355,1.99219-3.19727,2.10303-5.06836c1.88623-0.10742,3.65528-0.8418,5.06787-2.10352   c1.41309,1.26074,3.18262,1.99609,5.06836,2.10352c0.11084,1.87109,0.85938,3.6748,2.10303,5.06836   c-1.26172,1.41309-1.99609,3.18652-2.104,5.07715C37.12844,56.45675,35.35891,57.18819,33.94289,58.44405z M34.29836,61.34542   c-0.09424-0.09473-0.22217-0.14844-0.35547-0.14844s-0.26123,0.05371-0.35547,0.14844l-3.29395,3.32714V57.5909   c1.23169,0.32867,2.36597,0.96881,3.29688,1.89319c0.09766,0.09668,0.2251,0.14551,0.35254,0.14551   s0.25488-0.04883,0.35205-0.14551c0.93152-0.92438,2.0661-1.56445,3.29785-1.89319v7.08166L34.29836,61.34542z M38.5928,57.74678   v-0.35065c0.29822-0.0365,0.59894-0.06146,0.90381-0.06146c0.27637,0,0.5-0.22363,0.5-0.5   c0-1.96777,0.7666-3.81836,2.15918-5.21094c0.09424-0.09375,0.14648-0.22168,0.14648-0.35449s-0.05322-0.25977-0.14795-0.35352   c-1.37109-1.36133-2.15771-3.25684-2.15771-5.19922c0-0.27637-0.22363-0.5-0.5-0.5c-1.96143,0-3.80859-0.7666-5.2002-2.1582   c-0.1875-0.1875-0.51953-0.1875-0.70703,0c-1.3916,1.3916-3.23779,2.1582-5.19971,2.1582c-0.27637,0-0.5,0.22363-0.5,0.5   c0,1.94238-0.78662,3.83789-2.15771,5.19922c-0.09473,0.09375-0.14746,0.2207-0.14795,0.35352   c0,0.13281,0.05225,0.26074,0.14648,0.35449c1.39258,1.39258,2.15918,3.24316,2.15918,5.21094c0,0.27637,0.22363,0.5,0.5,0.5   c0.30487,0,0.60559,0.02496,0.90381,0.06146v0.35065H10.47561V15.04171c0-1.78711,1.45361-3.24072,3.24023-3.24072h0.14355   c1.99382,0.29099,2.97558,1.68638,2.97558,3.17236v3.23682c0,0.27637,0.22363,0.5,0.5,0.5h26.69873v39.03662H38.5928z    M45.03371,18.71016h6.19678c0.27637,0,0.5-0.22363,0.5-0.5v-3.23682c0-2.22159-1.78164-4.17236-4.17236-4.17236   c-10.94398,0-18.87893,0-30.23749,0c4.49976-3.47949,10.12152-5.57471,16.23749-5.57471   c14.68115,0,26.625,11.93896,26.625,26.61426c0,6.21631-2.16162,11.92419-5.74707,16.45789v-8.0946h0.28418   c0.27637,0,0.5-0.22363,0.5-0.5V25.06466c0-0.89899-0.57471-1.6601-1.37354-1.95282v-1.07648h1.37549   c0.72949,0,1.32275,0.59326,1.32275,1.32227v9.82373c0,0.27637,0.22363,0.5,0.5,0.5s0.5-0.22363,0.5-0.5v-9.82373   c0-1.28027-1.04199-2.32227-2.32275-2.32227h-1.45001c-0.22156-0.81433-0.95984-1.41797-1.84296-1.41797   c-1.05762,0-1.91797,0.86035-1.91797,1.91797v1.57648c-0.79883,0.29272-1.37354,1.05383-1.37354,1.95282v14.63916   c0,0.27637,0.22363,0.5,0.5,0.5h0.28418v12.96753c-1.36945,1.02319-2.83435,1.92236-4.38818,2.67047V18.71016z M51.92922,57.33956   c-0.96338-1.13574-1.50732-2.60156-1.50732-4.09668V40.20382h3.01416v13.03906   C53.43606,54.738,52.89211,56.20284,51.92922,57.33956z"></path><path fill="#2A44E2" d="M37.49953 24.54854h-4.55078c-.27637 0-.5.22363-.5.5s.22363.5.5.5h4.55078c.27637 0 .5-.22363.5-.5S37.7759 24.54854 37.49953 24.54854zM15.9634 25.54854h12.43408c.27637 0 .5-.22363.5-.5s-.22363-.5-.5-.5H15.9634c-.27637 0-.5.22363-.5.5S15.68703 25.54854 15.9634 25.54854zM37.49953 31.238H23.36086c-.27637 0-.5.22363-.5.5s.22363.5.5.5h14.13867c.27637 0 .5-.22363.5-.5S37.7759 31.238 37.49953 31.238zM15.9634 32.238h3.36816c.27637 0 .5-.22363.5-.5s-.22363-.5-.5-.5H15.9634c-.27637 0-.5.22363-.5.5S15.68703 32.238 15.9634 32.238zM29.3677 37.92745H15.9634c-.27637 0-.5.22363-.5.5s.22363.5.5.5h13.4043c.27637 0 .5-.22363.5-.5S29.64406 37.92745 29.3677 37.92745zM22.66555 44.61788H15.9634c-.27637 0-.5.22363-.5.5s.22363.5.5.5h6.70215c.27637 0 .5-.22363.5-.5S22.94192 44.61788 22.66555 44.61788zM22.66555 51.30733H15.9634c-.27637 0-.5.22363-.5.5s.22363.5.5.5h6.70215c.27637 0 .5-.22363.5-.5S22.94192 51.30733 22.66555 51.30733zM6.43362 49.58663c-.27637 0-.5.22363-.5.5v6.72949c0 .27637.22363.5.5.5s.5-.22363.5-.5v-6.72949C6.93362 49.81026 6.70998 49.58663 6.43362 49.58663zM6.43362 44.87569c-.27637 0-.5.22363-.5.5v1.9375c0 .27637.22363.5.5.5s.5-.22363.5-.5v-1.9375C6.93362 45.09932 6.70998 44.87569 6.43362 44.87569z"></path></svg>