<svg xmlns="http://www.w3.org/2000/svg" viewBox="0 0 67 67" id="business-strategy"><path fill="#8F9FFF" d="M50.83458,64.22416H15.83783v-2.39974c0-1.45843,1.18229-2.64071,2.64071-2.64071h29.71532  c1.45842,0,2.64071,1.18229,2.64071,2.64071V64.22416z"></path><rect width="28.154" height="3.379" x="19.259" y="55.804" fill="#FFF"></rect><path fill="#8F9FFF" d="M42.07108,34.78336H24.60134c-1.10718,0-2.00472-0.89754-2.00472-2.00472v0  c0-1.10718,0.89754-2.00472,2.00472-2.00472h17.46974c1.10718,0,2.00472,0.89754,2.00472,2.00472v0  C44.0758,33.88581,43.17825,34.78336,42.07108,34.78336z"></path><polygon fill="#8F9FFF" points="47.225 13.006 47.225 21.671 19.442 21.671 19.442 13.006 23.089 13.006 23.089 16.253 27.297 16.253 27.297 13.006 31.23 13.006 31.23 16.253 35.438 16.253 35.438 13.006 39.37 13.006 39.37 16.253 43.578 16.253 43.578 13.006"></polygon><circle cx="48.378" cy="40.31" r="1.701" fill="#8F9FFF"></circle><circle cx="18.242" cy="40.31" r="1.701" fill="#8F9FFF"></circle><path fill="#2A44E2" d="M9.77951 55.65211c-.18359-.20703-.49902-.22559-.70605-.04199-.20605.18311-.22559.49951-.04199.70605.55664.62744 1.14453 1.23975 1.74512 1.8208.20037.19236.51663.18532.70703-.0127.19238-.19873.18652-.51514-.01172-.70703C10.88889 56.85475 10.31955 56.26051 9.77951 55.65211zM2.19162 39.48805c-.04102-.27295-.30566-.45508-.56836-.41992-.27344.0415-.46191.29639-.41992.56934.75488 5.00098 2.71484 9.82959 5.66504 13.96484.15973.22362.47144.27729.69727.1167.22559-.16064.27734-.47266.11719-.69775C4.82248 49.01393 2.92404 44.33424 2.19162 39.48805zM2.5051 26.19948c.2556.07721.54077-.06649.62109-.33789C6.176 15.53981 14.5051 7.32789 24.86447 4.43092c.26563-.07422.4209-.3501.34668-.61621-.07422-.26514-.34863-.42285-.61621-.34668C13.90744 6.4568 5.31369 14.92897 2.16721 25.57838 2.08908 25.84303 2.24045 26.12135 2.5051 26.19948zM31.15354 3.3484c2.04883-.14111 4.16602-.08057 6.21289.18506.02246.00244.04395.00391.06543.00391.24707 0 .46191-.18359.49512-.43555.03516-.27393-.1582-.5249-.43164-.56006-2.1123-.27393-4.29492-.33643-6.41016-.19141-.27539.01904-.4834.25781-.46484.5332S30.87326 3.35426 31.15354 3.3484zM64.80392 33.31031c.01172.26807.2334.47705.49902.47705.00781 0 .01465 0 .02246-.00049.27637-.0127.48926-.24658.47656-.52246-.35742-7.80713-3.55078-15.23877-8.99218-20.92529-.19043-.19922-.50684-.20703-.70703-.01563-.19922.19092-.20605.50732-.01563.70703C61.36155 18.54225 64.45724 25.7444 64.80392 33.31031zM65.23459 37.37574c-.26855-.02051-.51953.17383-.54688.44873-.19824 2.0376-.60059 4.06836-1.19531 6.03613-.08008.26416.06934.54346.33398.62305.25759.07885.54149-.06438.62304-.33398.61328-2.03027 1.02832-4.12549 1.23438-6.22754C65.71017 37.64723 65.509 37.4026 65.23459 37.37574z"></path><path fill="#2A44E2" d="M33.33615,6.13112c-15.79297,0-28.6416,12.84473-28.6416,28.63281    c0,10.05676,5.22864,18.89008,13.09247,23.99878c-0.00812,0.00171-0.01721,0.00104-0.02533,0.00281    c-1.38,0.32996-2.41998,1.57996-2.41998,3.06v2.39997c0,0.28003,0.21997,0.5,0.5,0.5H50.8317c0.28003,0,0.5-0.21997,0.5-0.5    v-2.39997c0-1.47003-1.02002-2.72003-2.40002-3.04999c-0.00385-0.00098-0.00806-0.00049-0.0119-0.00146    c7.85248-5.11285,13.05896-13.96143,13.05896-24.01013C61.97873,18.97584,49.1301,6.13112,33.33615,6.13112z M24.29172,43.70552    c5.87374,0,10.89089,0,18.08997,0c-0.07996,0.67999-0.12,1.35999-0.12,2.03998v0.00037H24.4017v-0.00037    C24.41171,45.0655,24.37168,44.38551,24.29172,43.70552z M19.94168,21.17549v-7.66998h2.65002v2.75    c0,0.27002,0.21997,0.5,0.5,0.5h4.21002c0.26996,0,0.5-0.22998,0.5-0.5v-2.75h2.92999v2.75c0,0.27002,0.21997,0.5,0.5,0.5    h4.20996c0.27002,0,0.5-0.22998,0.5-0.5v-2.75h2.92999v2.75c0,0.27002,0.22003,0.5,0.5,0.5h4.21002    c0.27002,0,0.5-0.22998,0.5-0.5v-2.75h2.64001v7.66998C41.92059,21.1735,18.46232,21.17225,19.94168,21.17549z     M43.17173,22.17549c-1.55005,2.69-2.36005,5.40002-2.40002,8.10004h-14.87c-0.03998-2.70001-0.84998-5.41003-2.41003-8.10004    H43.17173z M42.07169,31.27553c0.83002,0,1.5,0.66998,1.5,1.5c0,0.82996-0.66998,1.50995-1.5,1.50995    c-7.78844,0-12.34333,0-17.46997,0c-0.83002,0-1.5-0.67999-1.5-1.50995c0-0.83002,0.66998-1.5,1.5-1.5    C28.11532,31.27553,38.57683,31.27553,42.07169,31.27553z M26.47171,35.28547h13.71997v7.42004H26.47171V35.28547z     M24.35166,46.74586h17.96008c0.22015,2.85986,1.26001,5.71973,3.09998,8.55963H21.26169    C23.09165,52.46559,24.1315,49.59571,24.35166,46.74586z M46.91172,56.30549v2.38H19.76169v-2.38    C27.5763,56.30549,37.21709,56.30549,46.91172,56.30549z M50.3317,61.82551v1.89996H16.34171v-1.89996    c0-1.17999,0.96002-2.14001,2.14001-2.14001c0.1038,0,29.8163,0,29.70996,0C49.37168,59.6855,50.3317,60.64552,50.3317,61.82551z     M47.91172,58.2212v-2.41571c0-0.27997-0.22003-0.5-0.5-0.5h-0.79999c-2.74005-4-3.80005-8.04999-3.16003-12.02002    c0.02002-0.14996-0.02002-0.28998-0.10999-0.40997c-0.10004-0.10999-0.23999-0.16998-0.38-0.16998h-1.77002v-7.42004h0.88    c1.38,0,2.5-1.13,2.5-2.50995c0-1.38-1.12-2.5-2.5-2.5H41.7717c0.04999-2.68005,0.90997-5.40002,2.58002-8.10004h2.87    c0.27997,0,0.5-0.22998,0.5-0.5v-8.66998c0-0.28003-0.22003-0.5-0.5-0.5H43.5817c-0.27997,0-0.5,0.21997-0.5,0.5v2.75h-3.21002    v-2.75c0-0.28003-0.21997-0.5-0.5-0.5h-3.92999c-0.27997,0-0.5,0.21997-0.5,0.5v2.75h-3.20996v-2.75    c0-0.28003-0.23004-0.5-0.5-0.5h-3.92999c-0.28003,0-0.5,0.21997-0.5,0.5v2.75h-3.21002v-2.75c0-0.28003-0.22998-0.5-0.5-0.5    h-3.65002c-0.27997,0-0.5,0.21997-0.5,0.5v8.66998c0,0.27002,0.22003,0.5,0.5,0.5h2.88    c1.66998,2.70001,2.53003,5.41998,2.58002,8.10004h-0.29999c-1.38,0-2.5,1.12-2.5,2.5c0,1.37994,1.12,2.50995,2.5,2.50995h0.87    v7.42004H23.7117c-0.14001,0-0.28003,0.06-0.38,0.16998c-0.09003,0.12-0.13,0.26001-0.10999,0.40997    c0.64001,3.98004-0.41998,8.02002-3.16998,12.02002h-0.79004c-0.27997,0-0.5,0.22003-0.5,0.5v2.40503    C10.92905,53.32765,5.69455,44.65449,5.69455,34.76393c0-15.23681,12.40039-27.63281,27.6416-27.63281    c15.24219,0,27.64258,12.396,27.64258,27.63281C60.97873,44.65596,55.74521,53.33619,47.91172,58.2212z"></path><path fill="#2A44E2" d="M30.20725 38.49342h-1.41504c-.27637 0-.5.22363-.5.5s.22363.5.5.5h1.41504c.27637 0 .5-.22363.5-.5S30.48361 38.49342 30.20725 38.49342zM34.04319 38.49342h-1.41406c-.27637 0-.5.22363-.5.5s.22363.5.5.5h1.41406c.27637 0 .5-.22363.5-.5S34.31955 38.49342 34.04319 38.49342zM37.8801 38.49342h-1.41504c-.27637 0-.5.22363-.5.5s.22363.5.5.5h1.41504c.27637 0 .5-.22363.5-.5S38.15647 38.49342 37.8801 38.49342zM53.93576 28.7693l1.18591-1.19037v5.30658h-6.73999c-.27997 0-.5.21997-.5.5v4.77997c-.97998.23004-1.70001 1.10004-1.70001 2.14001 0 1.22003.98004 2.20001 2.20001 2.20001 1.21002 0 2.20001-.97998 2.20001-2.20001 0-1.03998-.72998-1.90997-1.70001-2.14001v-4.27997h6.73999c.27002 0 .5-.23004.5-.5v-5.79577l1.17444 1.17957c.19531.19531.51172.1958.70703.00146.19629-.19531.19629-.51172.00195-.70752l-2.03418-2.04248c-.09375-.09424-.22168-.14697-.35449-.14697s-.26074.05273-.35449.14697l-2.03516 2.04248c-.19434.1958-.19434.51221.00195.70703C53.42557 28.96711 53.74297 28.96306 53.93576 28.7693zM49.5817 40.30549c0 .66998-.53998 1.20001-1.20001 1.20001-.66998 0-1.20001-.53003-1.20001-1.20001 0-.67984.55288-1.20001 1.20001-1.20001C49.04874 39.10548 49.5817 39.65583 49.5817 40.30549z"></path><path fill="#2A44E2" d="M55.84885 37.15553c-.19531-.19531-.51172-.19531-.70703 0l-.56885.56885-.56885-.56885c-.19531-.19531-.51172-.19531-.70703 0s-.19531.51172 0 .70703l.56885.56885-.56885.56885c-.19531.19531-.19531.51172 0 .70703.1953.19531.51171.19532.70703 0l.56885-.56885.56885.56885c.1953.19531.51171.19532.70703 0 .19531-.19531.19531-.51172 0-.70703L55.28 38.43141l.56885-.56885C56.04416 37.66725 56.04416 37.35084 55.84885 37.15553zM48.03537 29.15602c.1953.19531.51171.19532.70703 0l.56836-.56848.56836.56848c.1953.19531.51171.19532.70703 0 .19531-.19531.19531-.51172 0-.70703l-.56848-.5686.56848-.5686c.19531-.19531.19531-.51172 0-.70703s-.51172-.19531-.70703 0l-.56836.56848-.56836-.56848c-.19531-.19531-.51172-.19531-.70703 0s-.19531.51172 0 .70703l.56848.5686-.56848.5686C47.84006 28.6443 47.84006 28.96071 48.03537 29.15602zM18.74167 33.38551c0-.28003-.21997-.5-.5-.5h-6.73999v-5.30279l1.18213 1.18658c.19171.19267.50811.1989.70703.00098.19629-.19482.19629-.51123.00195-.70703l-2.03516-2.04248c-.1875-.18848-.52148-.18848-.70898 0l-2.03418 2.04248c-.19434.1958-.19434.51221.00195.70752.19531.19434.51172.19385.70703-.00146l1.17822-1.18335v5.79956c0 .26996.22003.5.5.5h6.73999v4.27997c-.96997.23004-1.69995 1.10004-1.69995 2.14001 0 1.22003.98999 2.20001 2.19995 2.20001 1.21002 0 2.20001-.97998 2.20001-2.20001 0-1.03998-.72998-1.90997-1.70001-2.14001V33.38551zM19.44168 40.30549c0 .66998-.53998 1.20001-1.20001 1.20001-.65997 0-1.19995-.53003-1.19995-1.20001 0-.47998.28998-.90002.69995-1.09003.15002-.06995.32001-.10999.5-.10999.18005 0 .35004.04004.5.10999C19.1517 39.40547 19.44168 39.82551 19.44168 40.30549z"></path><path fill="#2A44E2" d="M13.32248 37.15553c-.19531-.19531-.51172-.19531-.70703 0l-.56885.56885-.56885-.56885c-.19531-.19531-.51172-.19531-.70703 0s-.19531.51172 0 .70703l.56885.56885-.56885.56885c-.19531.19531-.19531.51172 0 .70703.09766.09766.22559.14648.35352.14648s.25586-.04883.35352-.14648l.56885-.56885.56885.56885c.09766.09766.22559.14648.35352.14648s.25586-.04883.35352-.14648c.19531-.19531.19531-.51172 0-.70703l-.56885-.56885.56885-.56885C13.51779 37.66725 13.51779 37.35084 13.32248 37.15553zM16.03244 29.15602c.19531.19531.51171.19532.70703 0l.56885-.56873.56885.56873c.19531.19531.51171.19532.70702 0 .19532-.19531.19532-.51172 0-.70703l-.56871-.5686.56871-.5686c.19532-.19531.19532-.51172 0-.70703-.1953-.19531-.51171-.19531-.70702 0l-.56885.56873-.56885-.56873c-.19531-.19531-.51172-.19531-.70703 0s-.19531.51172 0 .70703l.56873.5686-.56873.5686C15.83713 28.6443 15.83713 28.96071 16.03244 29.15602z"></path></svg>