<svg xmlns="http://www.w3.org/2000/svg" viewBox="0 0 67 67" id="project-management"><polygon fill="#FFF" points="35.455 16.77 35.455 48.788 4.543 48.788 4.543 9.262 27.213 9.262"></polygon><polygon fill="#8F9FFF" points="35.455 16.77 27.213 16.77 27.213 9.262"></polygon><path fill="#FFF" d="M60.06039,39.99229v16.07413c0,1.19104-0.95692,2.14796-2.14796,2.14796H33.00204  c-1.19104,0-2.15815-0.95692-2.15815-2.14796V39.99229c0-1.1911,0.96711-2.15815,2.15815-2.15815h24.91039  C59.10348,37.83414,60.06039,38.80119,60.06039,39.99229z"></path><path fill="#FFF" d="M60.06395,46.12098H30.84596v-6.16531c0-1.16907,0.94772-2.11679,2.11679-2.11679h24.98442  c1.16907,0,2.11678,0.94772,2.11678,2.11679V46.12098z"></path><rect width="3.828" height="1.853" x="37.776" y="35.981" fill="#8F9FFF"></rect><rect width="3.828" height="1.853" x="49.901" y="35.981" fill="#8F9FFF"></rect><polygon fill="#8F9FFF" points="35.781 43.759 39.66 43.759 39.66 47.475 37.715 49.439 35.781 47.475"></polygon><polygon fill="#8F9FFF" points="55.133 43.759 55.133 47.475 53.189 49.439 51.245 47.475 51.245 43.759"></polygon><path fill="#2A44E2" d="M30.89928 64.96652c-1.44482-.125-2.88818-.34863-4.29004-.66406-.26953-.06641-.53711.10742-.59766.37695s.1084.53711.37793.59766c1.4458.32617 2.93408.55762 4.42383.68555.29756.01984.51868-.1958.54102-.45508C31.37828 65.23215 31.17418 64.98996 30.89928 64.96652zM23.05454 63.27902c-6.19384-2.18066-11.51513-6.16504-15.38867-11.52148-.1626-.22363-.47559-.27344-.69824-.1123-.22363.16211-.27393.47461-.1123.69824 3.99365 5.52246 9.48047 9.62988 15.86719 11.87891.25465.09095.54497-.04126.6377-.30566C23.45201 63.65598 23.31529 63.37082 23.05454 63.27902zM65.98717 26.01047C63.63463 15.1218 55.67662 5.92844 45.21861 2.01535c-.25781-.0957-.54688.03418-.64355.29395-.09668.25781.03516.5459.29395.64355C55.0106 6.7468 62.72838 15.66281 65.0106 26.22141 65.14851 26.87038 66.12878 26.66188 65.98717 26.01047z"></path><path fill="#2A44E2" d="M33.66344,3.83762c-5.98004,0-11.53558,1.82257-16.16656,4.92383h-4.76691   c3.65863-3.16467,7.97717-5.49432,12.63171-6.74316c0.26709-0.07227,0.42529-0.34668,0.35352-0.61328   c-0.07178-0.26563-0.34766-0.41992-0.6123-0.35352c-5.16736,1.38684-9.94049,4.05524-13.88495,7.70996H4.54283   c-0.27637,0-0.5,0.22363-0.5,0.5v39.52637c0,0.27637,0.22363,0.5,0.5,0.5h4.94739   c5.24518,7.76367,14.12134,12.88086,24.17322,12.88086c4.95923,0,9.62372-1.25989,13.71619-3.4541h10.53235   c1.45996,0,2.64844-1.18848,2.64844-2.64844v-9.9259c0.00031-0.00684,0.00391-0.01251,0.00391-0.01941v-1.8681   c1.45441-3.46478,2.25977-7.26685,2.25977-11.25397C62.82408,16.91965,49.74303,3.83762,33.66344,3.83762z M5.04283,9.76145   h21.67041v7.00781c0,0.27637,0.22363,0.5,0.5,0.5h7.7417v20.06445h-1.95313c-1.48262,0-2.65576,1.17876-2.65576,2.62207v0.01678   c-0.00006,0.00659-0.00195,0.01276-0.00195,0.01935v4.33691H9.93053v-10.6123c0-0.27637-0.22363-0.5-0.5-0.5s-0.5,0.22363-0.5,0.5   v11.1123c0,0.27637,0.22363,0.5,0.5,0.5H30.3441v2.95898H5.04283V9.76145z M34.1638,16.26926h-6.45056v-5.87598   C27.82173,10.49211,34.58342,16.6515,34.1638,16.26926z M53.22838,37.33371h-2.82715v-0.85254c0.17036,0,3.0057,0,2.82715,0   V37.33371z M59.56041,39.99191v5.62891h-3.92676v-1.8623c0-0.27637-0.22363-0.5-0.5-0.5h-3.88867c-0.27637,0-0.5,0.22363-0.5,0.5   v1.8623H40.16002v-1.8623c0-0.27637-0.22363-0.5-0.5-0.5h-3.87891c-0.27637,0-0.5,0.22363-0.5,0.5v1.8623h-3.93506v-5.64819   c0.01083-0.92153,0.77214-1.63403,1.6167-1.63403h24.98438C58.79804,38.33859,59.56041,39.06093,59.56041,39.99191z    M54.63365,44.25851v3.01074l-1.44434,1.45898l-1.44434-1.45898v-3.01074H54.63365z M39.16002,44.25851v3.01074l-1.44336,1.45801   l-1.43555-1.45801v-3.01074H39.16002z M51.31334,35.48117h-1.41211c-0.27637,0-0.5,0.22363-0.5,0.5v1.35254h-7.29688v-1.35254   c0-0.27637-0.22363-0.5-0.5-0.5H40.1942v-1.06836c0-1.00977,0.82227-1.83203,1.83301-1.83203h7.4541   c1.00977,0,1.83203,0.82227,1.83203,1.83203V35.48117z M41.10435,36.48117v0.85254h-2.82813v-0.85254   C38.38149,36.48117,41.2094,36.48117,41.10435,36.48117z M33.66344,61.16867c-9.46271,0-17.84186-4.69934-22.95038-11.88086   H30.3441v6.77832c0,1.45996,1.19238,2.64844,2.65771,2.64844h12.1264C41.62352,60.28604,37.74614,61.16867,33.66344,61.16867z    M57.91197,57.71457H33.00182c-0.91406,0-1.65771-0.73926-1.65771-1.64844v-9.44531h3.93701v0.85352   c0,0.13086,0.05176,0.25684,0.14355,0.35059l1.93457,1.96484c0.09375,0.0957,0.22168,0.14941,0.35547,0.14941   c0.00098,0,0.00098,0,0.00098,0c0.13379,0,0.26172-0.05371,0.35547-0.14844l1.94434-1.96484   c0.09277-0.09375,0.14453-0.21973,0.14453-0.35156v-0.85352h10.58496v0.85352c0,0.13184,0.05176,0.25781,0.14453,0.35156   l1.94434,1.96484c0.09375,0.09473,0.22168,0.14844,0.35547,0.14844s0.26172-0.05371,0.35547-0.14844l1.94434-1.96484   c0.09277-0.09375,0.14453-0.21973,0.14453-0.35156v-0.85352h3.92676v9.44531   C59.56041,56.97531,58.82115,57.71457,57.91197,57.71457z M57.91197,37.33371h-3.68359v-1.35254c0-0.27637-0.22363-0.5-0.5-0.5   h-1.41504v-1.06836c0-1.56152-1.27051-2.83203-2.83203-2.83203h-7.4541c-1.5625,0-2.83301,1.27051-2.83301,2.83203v1.06836   h-1.41797c-0.27637,0-0.5,0.22363-0.5,0.5v1.35254h-1.32129V16.86618c0.12844-0.63149-0.9605-0.94559-8.40479-7.97485   c-0.07757-0.06977-0.19644-0.11131-0.28656-0.12042c-0.01715-0.00177-0.03296-0.00946-0.05035-0.00946h-7.83508   c4.19189-2.48273,9.06976-3.92383,14.28528-3.92383c15.52783,0,28.16064,12.63281,28.16064,28.16113   c0,2.88702-0.44763,5.6687-1.25977,8.29211v-1.33508C60.56432,38.50284,59.38028,37.33371,57.91197,37.33371z"></path><path fill="#2A44E2" d="M9.43053 23.52024h13.52734c.27637 0 .5-.22363.5-.5s-.22363-.5-.5-.5H9.43053c-.27637 0-.5.22363-.5.5S9.15416 23.52024 9.43053 23.52024zM26.76256 23.52024h3.80518c.27637 0 .5-.22363.5-.5s-.22363-.5-.5-.5h-3.80518c-.27637 0-.5.22363-.5.5S26.48619 23.52024 26.76256 23.52024zM30.56773 26.95188H16.63072c-.27637 0-.5.22363-.5.5s.22363.5.5.5h13.93701c.27637 0 .5-.22363.5-.5S30.8441 26.95188 30.56773 26.95188zM9.43053 27.95188h3.50146c.27637 0 .5-.22363.5-.5s-.22363-.5-.5-.5H9.43053c-.27637 0-.5.22363-.5.5S9.15416 27.95188 9.43053 27.95188zM9.43053 19.08762h3.50146c.27637 0 .5-.22363.5-.5s-.22363-.5-.5-.5H9.43053c-.27637 0-.5.22363-.5.5S9.15416 19.08762 9.43053 19.08762zM15.20592 18.58762c0 .27637.22363.5.5.5h8.4873c.27637 0 .5-.22363.5-.5s-.22363-.5-.5-.5h-8.4873C15.42954 18.08762 15.20592 18.31125 15.20592 18.58762zM9.43053 14.65598h10.29639c.27637 0 .5-.22363.5-.5s-.22363-.5-.5-.5H9.43053c-.27637 0-.5.22363-.5.5S9.15416 14.65598 9.43053 14.65598zM26.44273 33.7468l-.01727.00232c-.00146.00024-.00299.00031-.00446.00055l-2.4519.32526c-.27344.03711-.46582.28809-.42969.56152.03613.27441.28955.46387.56152.43066l1.30127-.17279-3.1709 4.32904-4.21094-5.00977c-.09863-.11719-.2373-.16699-.39941-.17871-.15332.00586-.2959.08105-.38672.2041l-4.32813 5.90723c-.16309.22266-.11475.53613.10791.69922.22028.16219.53347.11621.69873-.10742l3.95166-5.39355 4.21094 5.00977c.09863.11719.25684.18066.39941.17871.15332-.00586.2959-.08105.38672-.2041l3.51404-4.79736.16614 1.25049c.08797.66754 1.07833.51965.99121-.13086l-.32861-2.47363C26.96664 33.89177 26.69558 33.71611 26.44273 33.7468zM54.33482 18.7468l-1.46973-.32227c-.12012-.38867-.27246-.75586-.45605-1.09863l.80469-1.2627c.12598-.19727.09766-.45508-.06738-.62109l-1.66992-1.67969c-.16504-.16504-.4248-.19336-.62207-.07031l-1.27539.80859c-.3584-.18945-.72363-.34082-1.08887-.45215l-.33008-1.46875c-.05176-.22852-.25488-.39063-.48828-.39063h-2.3623c-.23438 0-.43848.16309-.48828.39258l-.32227 1.46582c-.36621.11133-.73535.2627-1.10352.4541l-1.26855-.80859c-.2002-.12793-.45801-.09668-.62305.06934l-1.66895 1.67969c-.16504.16602-.19238.42383-.06738.62109l.80469 1.2627c-.18359.34375-.33691.71094-.45703 1.09863l-1.45898.32227c-.22949.05078-.39258.25391-.39258.48828v2.37207c0 .23438.16309.4375.39258.48828l1.45898.32227c.11914.38184.27051.74512.45801 1.09766L39.76744 24.78c-.125.19727-.09766.45508.06738.62109l1.66895 1.67969c.16602.16602.4248.19824.62402.06836l1.27246-.81445c.34375.18457.71191.33691 1.09863.45605l.32227 1.46973c.0498.22949.25391.39258.48828.39258h2.3623c.2334 0 .43652-.16211.48828-.39063l.33105-1.47266c.38379-.11914.74805-.27148 1.08984-.45508l1.27148.81445c.19824.12598.45801.09863.62402-.06836l1.66992-1.67969c.16504-.16602.19336-.42383.06738-.62109l-.80664-1.26563c.18359-.3457.33594-.71289.45605-1.0957l1.47168-.32324c.22949-.0498.39258-.25391.39258-.48828v-2.37207C54.7274 19.0007 54.56432 18.7966 54.33482 18.7468zM53.7274 21.20481l-1.36914.30078c-.18262.04004-.32813.17969-.37598.36035-.13379.50586-.33105.97949-.58691 1.40918-.09668.16211-.09375.36523.00781.52441l.75195 1.18066-1.10352 1.10938-1.18652-.75977c-.16016-.10352-.36523-.10547-.5293-.00586-.41895.25488-.88867.45117-1.39453.58398-.18066.04688-.31934.19141-.36133.37402l-.30859 1.37109h-1.55957L45.411 26.28391c-.04004-.18359-.18066-.33008-.36328-.37695-.50977-.13086-.98145-.32715-1.40234-.58301-.16309-.09961-.36816-.09668-.5293.00586l-1.1875.75977-1.10254-1.10938.75195-1.18066c.10155-.15918.10449-.3623.00781-.52441-.26465-.44434-.45703-.9043-.58691-1.40723-.04785-.18164-.19336-.32129-.37695-.3623l-1.3584-.2998v-1.56934l1.3584-.2998c.18359-.04102.3291-.18066.37695-.3623.13184-.51074.3291-.9834.58398-1.40332.09961-.16309.09766-.36816-.00488-.52832l-.75195-1.17969 1.10351-1.11035 1.17774.75098c.1582.09961.35645.10352.51758.01172.47559-.27246.95117-.4668 1.41406-.57813.18652-.04492.33105-.19238.37207-.37891l.30078-1.36914h1.55957l.30859 1.37109c.04199.18555.18555.33105.37012.37598.46387.11426.93359.30762 1.39258.57715.16113.09473.36133.08887.52051-.00879l1.1875-.75293 1.10449 1.11133-.75195 1.17969c-.10254.16016-.10449.36523-.00488.52832.25391.41797.4502.89063.58301 1.40332.04785.18164.19336.32227.37695.3623l1.36914.30078V21.20481z"></path><path fill="#2A44E2" d="M46.4901 16.5466c-2.13379 0-3.86914 1.73535-3.86914 3.86914 0 2.13965 1.73535 3.87988 3.86914 3.87988 2.13965 0 3.87988-1.74023 3.87988-3.87988C50.36998 18.28195 48.62975 16.5466 46.4901 16.5466zM46.4901 23.29563c-1.58203 0-2.86914-1.29199-2.86914-2.87988 0-1.58203 1.28711-2.86914 2.86914-2.86914 1.58789 0 2.87988 1.28711 2.87988 2.86914C49.36998 22.00363 48.07799 23.29563 46.4901 23.29563zM57.27135 61.42648h-4.62012c-.27637 0-.5.22363-.5.5s.22363.5.5.5h4.62012c.27637 0 .5-.22363.5-.5S57.54771 61.42648 57.27135 61.42648zM50.11705 61.42648H48.5731c-.27637 0-.5.22363-.5.5s.22363.5.5.5h1.54395c.27637 0 .5-.22363.5-.5S50.39342 61.42648 50.11705 61.42648zM1.49889 19.61301c-.27637 0-.5.22363-.5.5v11.58496c0 .27637.22363.5.5.5s.5-.22363.5-.5V20.11301C1.99889 19.83664 1.77525 19.61301 1.49889 19.61301zM1.49889 34.04855c-.27637 0-.5.22363-.5.5v3.29004c0 .27637.22363.5.5.5s.5-.22363.5-.5v-3.29004C1.99889 34.27219 1.77525 34.04855 1.49889 34.04855z"></path></svg>